<?xml version="1.0" encoding="UTF-8" standalone="no"?>
<!DOCTYPE svg PUBLIC "-//W3C//DTD SVG 1.1//EN" "http://www.w3.org/Graphics/SVG/1.1/DTD/svg11.dtd">
<svg width="100%" height="100%" viewBox="0 0 44 44" version="1.1" xmlns="http://www.w3.org/2000/svg" xmlns:xlink="http://www.w3.org/1999/xlink" xml:space="preserve" xmlns:serif="http://www.serif.com/" style="fill-rule:evenodd;clip-rule:evenodd;stroke-linejoin:round;stroke-miterlimit:2;">
    <g transform="matrix(0.154231,0,0,0.154231,3.902461,4.531589)">
        <path d="M235.085,202.389C234.696,197.704 232.262,193.42 228.435,190.689L195.35,157.15L212.35,140.2C221.761,130.869 225.896,117.416 223.35,104.41C218.697,81.568 204.723,64.91 187.95,46.52C171.848,28.866 129.022,-17.687 105.302,-16.316C65.62,-14.022 -14.992,68.944 -14.877,103.862C-14.806,125.237 25.444,169.863 46.55,187.86C65.88,204.342 81.598,218.607 104.44,223.26C117.446,225.804 130.898,221.67 140.23,212.26L157.18,195.26L191.211,227.854C193.917,231.707 198.191,234.175 202.881,234.594C203.321,234.594 203.761,234.644 204.201,234.644C208.442,234.642 212.513,232.954 215.511,229.954L230.355,215.109C233.739,211.783 235.474,207.118 235.085,202.389ZM204.281,218.594L164.77,178.31C163.403,176.399 161.262,175.183 158.92,174.99L158.26,174.99C156.138,174.988 154.101,175.831 152.6,177.33L128.97,200.96C123.413,206.6 115.383,209.092 107.61,207.59C103.423,206.752 99.31,205.582 95.31,204.09L204.11,95.29C205.6,99.291 206.771,103.404 207.61,107.59C209.114,115.363 206.621,123.394 200.98,128.95L177.3,152.55C175.797,154.05 174.952,156.088 174.952,158.212C174.952,160.792 176.201,163.219 178.3,164.72L219.085,203.749L204.281,218.594Z" style="fill-rule:nonzero;"/>
    </g>
</svg>
